<svg xmlns="http://www.w3.org/2000/svg" enable-background="new 0 0 24 24" viewBox="0 0 24 24">
<path d="m17.071 18.65c-.002 0-.004 0-.006 0-.347 0-.567-.125-.798-.276-2.615-1.737-5.841-2.157-9.869-1.292l-.095.028c-.206.059-.418.12-.603.12-.001 0-.002 0-.002 0-.34-.002-.655-.134-.887-.373-.249-.255-.387-.616-.38-.989.015-.713.422-1.227 1.087-1.375 4.811-1.118 8.894-.604 12.133 1.53.429.302.703.636.688 1.315-.015.737-.572 1.312-1.268 1.312zm-6.873-3.004c2.531 0 4.714.629 6.617 1.893.164.107.191.112.254.112v-.001c.119.034.266-.115.27-.333.006-.274-.047-.323-.251-.467-2.988-1.969-6.811-2.436-11.348-1.382-.183.041-.303.128-.31.422-.002.105.034.207.096.271.046.047.102.07.175.07.053-.003.229-.054.324-.082l.135-.038c1.438-.31 2.781-.465 4.038-.465z"/>
<path d="m18.388 14.782c-.009 0-.019 0-.028 0-.338-.006-.58-.127-.756-.216-3.264-1.791-7.753-2.365-11.52-1.503l-.151.038c-.159.042-.31.087-.556.081-.8-.013-1.451-.632-1.453-1.379-.003-.713.415-1.223 1.147-1.396 1.275-.301 2.766-.567 4.95-.538 3.282.056 6.471.851 8.981 2.238.55.302.818.735.82 1.323-.002.361-.146.695-.402.945-.27.263-.636.407-1.032.407zm-8.684-3.111c2.952 0 5.956.689 8.295 1.976.194.097.272.133.376.135h.001c.145.008.261-.041.345-.124.045-.044.1-.121.101-.232 0-.184-.047-.305-.302-.445-2.371-1.31-5.395-2.061-8.516-2.114-1.972-.041-3.304.18-4.703.511-.317.075-.379.211-.378.42 0 .204.215.378.469.382.086-.003.151-.013.287-.048l.182-.045c1.229-.28 2.531-.416 3.843-.416z"/>
<path d="m19.7 10.902c-.005 0-.011 0-.017 0-.369-.006-.61-.116-.881-.292-3.103-2.087-8.937-2.817-13.012-1.627-.258.079-.479.158-.768.149-.42-.004-.812-.173-1.103-.475-.319-.332-.488-.787-.475-1.282.027-.992.65-1.531 1.224-1.705 1.714-.524 3.676-.777 5.806-.758 3.856.039 7.519 1.016 10.049 2.68.565.366.831.896.812 1.618-.025.937-.757 1.692-1.635 1.692zm-9.566-3.48c3.413 0 6.98.847 9.22 2.354.165.107.222.124.34.125.296.014.629-.27.641-.718.012-.428-.123-.601-.358-.753-2.377-1.563-5.844-2.48-9.512-2.517-2.048-.027-3.889.22-5.505.714h-.001c-.15.046-.5.212-.515.775-.006.225.063.424.196.561.073.077.2.167.392.169.154.01.251-.041.382-.081.003 0 .094-.028.096-.028 1.398-.408 2.993-.601 4.624-.601zm-5.321-1.273h.01z"/>
<path d="m12 24c-6.617 0-12-5.383-12-12s5.383-12 12-12 12 5.383 12 12-5.383 12-12 12zm0-23c-6.065 0-11 4.935-11 11s4.935 11 11 11 11-4.935 11-11-4.935-11-11-11z"/></svg>