<svg width="509" height="496" viewBox="0 0 509 496" fill="none" xmlns="http://www.w3.org/2000/svg">
<g clip-path="url(#clip0_63_371)">
<path d="M0 8.73654L8.73661 0H10.1508L0 10.1507V8.73654Z" fill="#D6D6D6"/>
<path d="M0 21.474V20.0599L20.0597 0H21.4738L0 21.474Z" fill="#D6D6D6"/>
<path d="M0 32.7941V31.3799L31.3797 0H32.7938L0 32.7941Z" fill="#D6D6D6"/>
<path d="M0 44.1174V42.7032L42.7032 0H44.1174L0 44.1174Z" fill="#D6D6D6"/>
<path d="M0 55.4372V54.0231L54.0231 0H55.4372L0 55.4372Z" fill="#D6D6D6"/>
<path d="M0 66.7643V65.3501L65.3496 0H66.7637L0 66.7643Z" fill="#D6D6D6"/>
<path d="M0 78.0773V76.6632L76.6632 0H78.0773L0 78.0773Z" fill="#D6D6D6"/>
<path d="M0 89.4003V87.9861L87.9868 0H89.401L0 89.4003Z" fill="#D6D6D6"/>
<path d="M0 100.72V99.3062L99.307 0H100.721L0 100.72Z" fill="#D6D6D6"/>
<path d="M0 112.047V110.633L110.633 0H112.047L0 112.047Z" fill="#D6D6D6"/>
<path d="M0 123.367V121.953L121.953 0H123.367L0 123.367Z" fill="#D6D6D6"/>
<path d="M0 134.687V133.273L133.273 0H134.687L0 134.687Z" fill="#D6D6D6"/>
<path d="M0 146.007V144.593L144.593 0H146.007L0 146.007Z" fill="#D6D6D6"/>
<path d="M0 157.335V155.92L155.919 0H157.333L0 157.335Z" fill="#D6D6D6"/>
<path d="M0 168.655V167.241L167.239 0H168.653L0 168.655Z" fill="#D6D6D6"/>
<path d="M0 179.977V178.563L178.563 0H179.977L0 179.977Z" fill="#D6D6D6"/>
<path d="M0 191.29V189.876L189.877 0H191.291L0 191.29Z" fill="#D6D6D6"/>
<path d="M0 202.617V201.203L201.203 0H202.617L0 202.617Z" fill="#D6D6D6"/>
<path d="M0 213.937V212.523L212.523 0H213.937L0 213.937Z" fill="#D6D6D6"/>
<path d="M0 225.26V223.846L223.847 0H225.262L0 225.26Z" fill="#D6D6D6"/>
<path d="M0 236.58V235.166L235.167 0H236.582L0 236.58Z" fill="#D6D6D6"/>
<path d="M0 247.905V246.491L246.489 0H247.903L0 247.905Z" fill="#D6D6D6"/>
<path d="M0 259.225V257.811L257.809 0H259.223L0 259.225Z" fill="#D6D6D6"/>
<path d="M0 270.547V269.133L269.133 0H270.547L0 270.547Z" fill="#D6D6D6"/>
<path d="M0 281.867V280.453L280.453 0H281.867L0 281.867Z" fill="#D6D6D6"/>
<path d="M0 293.187V291.773L291.773 0H293.187L0 293.187Z" fill="#D6D6D6"/>
<path d="M0 304.507V303.093L303.093 0H304.507L0 304.507Z" fill="#D6D6D6"/>
<path d="M0 315.829V314.415L314.418 0H315.832L0 315.829Z" fill="#D6D6D6"/>
<path d="M0 327.149V325.735L325.738 0H327.152L0 327.149Z" fill="#D6D6D6"/>
<path d="M0 338.477V337.063L337.063 0H338.477L0 338.477Z" fill="#D6D6D6"/>
<path d="M0 349.795V348.381L348.378 0H349.793L0 349.795Z" fill="#D6D6D6"/>
<path d="M0 361.117V359.703L359.703 0H361.117L0 361.117Z" fill="#D6D6D6"/>
<path d="M0 372.437V371.023L371.023 0H372.437L0 372.437Z" fill="#D6D6D6"/>
<path d="M0 383.766V382.351L382.348 0H383.762L0 383.766Z" fill="#D6D6D6"/>
<path d="M0 395.086V393.671L393.668 0H395.082L0 395.086Z" fill="#D6D6D6"/>
<path d="M0 406.399V404.985L404.988 0H406.402L0 406.399Z" fill="#D6D6D6"/>
<path d="M0 417.719V416.305L416.308 0H417.722L0 417.719Z" fill="#D6D6D6"/>
<path d="M0 429.047V427.633L427.633 0H429.047L0 429.047Z" fill="#D6D6D6"/>
<path d="M0 440.367V438.953L438.953 0H440.367L0 440.367Z" fill="#D6D6D6"/>
<path d="M0 451.689V450.275L450.278 0H451.692L0 451.689Z" fill="#D6D6D6"/>
<path d="M0 463.007V461.593L461.593 0H463.007L0 463.007Z" fill="#D6D6D6"/>
<path d="M0 474.336V472.922L472.918 0H474.332L0 474.336Z" fill="#D6D6D6"/>
<path d="M0 485.656V484.242L484.238 0H485.652L0 485.656Z" fill="#D6D6D6"/>
<path d="M0 496.977V495.563L495.563 0H496.977L0 496.977Z" fill="#D6D6D6"/>
<path d="M0 508.297V506.883L506.883 0H508.297L0 508.297Z" fill="#D6D6D6"/>
<path d="M0 519.617V518.203L518.203 0H519.617L0 519.617Z" fill="#D6D6D6"/>
<path d="M0 530.937V529.523L529.523 0H530.937L0 530.937Z" fill="#D6D6D6"/>
<path d="M0 542.258V540.844L540.849 0H542.263L0 542.258Z" fill="#D6D6D6"/>
<path d="M0 553.579V552.164L552.169 0H553.583L0 553.579Z" fill="#D6D6D6"/>
<path d="M0 564.906V563.492L563.488 0H564.902L0 564.906Z" fill="#D6D6D6"/>
<path d="M0 576.227V574.813L574.813 0H576.227L0 576.227Z" fill="#D6D6D6"/>
<path d="M0 587.547V586.133L586.133 0H587.547L0 587.547Z" fill="#D6D6D6"/>
<path d="M0 598.867V597.453L597.453 0H598.867L0 598.867Z" fill="#D6D6D6"/>
<path d="M0 610.196V608.782L608.777 0H610.191L0 610.196Z" fill="#D6D6D6"/>
<path d="M0 621.508V620.094L620.099 0H621.513L0 621.508Z" fill="#D6D6D6"/>
<path d="M0 632.828V631.414L631.419 0H632.833L0 632.828Z" fill="#D6D6D6"/>
<path d="M0 644.148V642.734L642.739 0H644.153L0 644.148Z" fill="#D6D6D6"/>
<path d="M0 655.477V654.063L654.063 0H655.477L0 655.477Z" fill="#D6D6D6"/>
<path d="M0 666.798V665.384L665.389 0H666.803L0 666.798Z" fill="#D6D6D6"/>
<path d="M0 678.117V676.703L676.703 0H678.117L0 678.117Z" fill="#D6D6D6"/>
<path d="M0 689.437V688.023L688.023 0H689.437L0 689.437Z" fill="#D6D6D6"/>
<path d="M0 700.767V699.353L699.347 0H700.761L0 700.767Z" fill="#D6D6D6"/>
<path d="M0 712.087V710.673L710.673 0H712.087L0 712.087Z" fill="#D6D6D6"/>
<path d="M0 723.407V721.993L721.993 0H723.407L0 723.407Z" fill="#D6D6D6"/>
<path d="M0 734.718V733.304L733.309 0H734.724L0 734.718Z" fill="#D6D6D6"/>
<path d="M0 746.047V744.633L744.633 0H746.047L0 746.047Z" fill="#D6D6D6"/>
<path d="M0 757.368V755.953L755.96 0H757.374L0 757.368Z" fill="#D6D6D6"/>
<path d="M0 768.688V767.273L767.28 0H768.694L0 768.688Z" fill="#D6D6D6"/>
<path d="M0 780.017V778.603L778.603 0H780.017L0 780.017Z" fill="#D6D6D6"/>
<path d="M0 791.337V789.923L789.917 0H791.331L0 791.337Z" fill="#D6D6D6"/>
<path d="M0 802.657V801.243L801.243 0H802.657L0 802.657Z" fill="#D6D6D6"/>
<path d="M0 813.977V812.563L812.563 0H813.977L0 813.977Z" fill="#D6D6D6"/>
<path d="M0 825.307V823.893L823.887 0H825.301L0 825.307Z" fill="#D6D6D6"/>
<path d="M0.627308 836H0V835.213L835.206 0H836.621L0.627308 836Z" fill="#D6D6D6"/>
<path d="M11.9374 836H10.5233L846.53 0H847.944L11.9374 836Z" fill="#D6D6D6"/>
<path d="M23.2574 836H21.8433L857.85 0H859.264L23.2574 836Z" fill="#D6D6D6"/>
<path d="M34.5873 836H33.1732L869.173 0H870.587L34.5873 836Z" fill="#D6D6D6"/>
<path d="M45.9073 836H44.4932L880.493 0H881.907L45.9073 836Z" fill="#D6D6D6"/>
<path d="M57.2273 836H55.8131L891.813 0H893.227L57.2273 836Z" fill="#D6D6D6"/>
<path d="M68.5473 836H67.1332L903.133 0H904.547L68.5473 836Z" fill="#D6D6D6"/>
<path d="M79.877 836H78.4629L914.456 0H915.87L79.877 836Z" fill="#D6D6D6"/>
<path d="M91.1969 836H89.7828L925.776 0H927.19L91.1969 836Z" fill="#D6D6D6"/>
<path d="M102.517 836H101.103L937.103 0H938.517L102.517 836Z" fill="#D6D6D6"/>
<path d="M113.828 836H112.414L948.42 0H949.834L113.828 836Z" fill="#D6D6D6"/>
<path d="M125.157 836H123.743L959.743 0H961.157L125.157 836Z" fill="#D6D6D6"/>
<path d="M136.477 836H135.063L971.063 0H972.477L136.477 836Z" fill="#D6D6D6"/>
<path d="M147.798 836H146.384L982.39 0H983.805L147.798 836Z" fill="#D6D6D6"/>
<path d="M159.118 836H157.704L993.71 0H995.125L159.118 836Z" fill="#D6D6D6"/>
<path d="M170.447 836H169.033L1005.03 0H1006.44L170.447 836Z" fill="#D6D6D6"/>
<path d="M181.767 836H180.352L1016.35 0H1017.76L181.767 836Z" fill="#D6D6D6"/>
<path d="M193.087 836H191.673L1027.67 0H1029.09L193.087 836Z" fill="#D6D6D6"/>
<path d="M204.407 836H202.993L1038.99 0H1040.41L204.407 836Z" fill="#D6D6D6"/>
<path d="M215.736 836H214.322L1050.32 0H1051.73L215.736 836Z" fill="#D6D6D6"/>
<path d="M227.047 836H225.633L1061.63 0H1063.05L227.047 836Z" fill="#D6D6D6"/>
<path d="M238.368 836H236.954L1072.96 0H1074.38L238.368 836Z" fill="#D6D6D6"/>
<path d="M249.688 836H248.274L1084.28 0H1085.7L249.688 836Z" fill="#D6D6D6"/>
<path d="M261.017 836H259.603L1095.6 0H1097.02L261.017 836Z" fill="#D6D6D6"/>
<path d="M272.336 836H270.922L1106.92 0H1108.33L272.336 836Z" fill="#D6D6D6"/>
<path d="M283.657 836H282.243L1118.24 0H1119.66L283.657 836Z" fill="#D6D6D6"/>
<path d="M294.977 836H293.563L1129.56 0H1130.98L294.977 836Z" fill="#D6D6D6"/>
<path d="M306.306 836H304.892L1140.89 0H1142.3L306.306 836Z" fill="#D6D6D6"/>
<path d="M317.626 836H316.212L1152.21 0H1153.62L317.626 836Z" fill="#D6D6D6"/>
<path d="M328.939 836H327.524L1163.53 0H1164.95L328.939 836Z" fill="#D6D6D6"/>
<path d="M340.259 836H338.845L1174.85 0H1176.27L340.259 836Z" fill="#D6D6D6"/>
<path d="M351.587 836H350.173L1186.17 0H1187.59L351.587 836Z" fill="#D6D6D6"/>
<path d="M362.907 836H361.493L1197.49 0H1198.91L362.907 836Z" fill="#D6D6D6"/>
<path d="M374.229 836H372.815L1208.82 0H1210.24L374.229 836Z" fill="#D6D6D6"/>
<path d="M385.547 836H384.133L1220.13 0H1221.55L385.547 836Z" fill="#D6D6D6"/>
<path d="M396.876 836H395.462L1231.45 0H1232.87L396.876 836Z" fill="#D6D6D6"/>
<path d="M408.196 836H406.781L1242.77 0H1244.19L408.196 836Z" fill="#D6D6D6"/>
<path d="M419.517 836H418.103L1254.1 0H1255.52L419.517 836Z" fill="#D6D6D6"/>
<path d="M430.837 836H429.423L1265.42 0H1266.84L430.837 836Z" fill="#D6D6D6"/>
<path d="M442.157 836H440.743L1276.74 0H1278.16L442.157 836Z" fill="#D6D6D6"/>
<path d="M453.477 836H452.063L1288.06 0H1289.48L453.477 836Z" fill="#D6D6D6"/>
<path d="M464.799 836H463.385L1299.39 0H1300.81L464.799 836Z" fill="#D6D6D6"/>
<path d="M476.119 836H474.705L1310.71 0H1312.13L476.119 836Z" fill="#D6D6D6"/>
<path d="M487.447 836H486.033L1322.03 0H1323.45L487.447 836Z" fill="#D6D6D6"/>
<path d="M498.765 836H497.351L1333.34 0H1334.76L498.765 836Z" fill="#D6D6D6"/>
<path d="M510.087 836H508.673L1344.67 0H1346.09L510.087 836Z" fill="#D6D6D6"/>
<path d="M521.407 836H519.993L1355.99 0H1357.41L521.407 836Z" fill="#D6D6D6"/>
<path d="M532.735 836H531.321L1367.31 0H1368.73L532.735 836Z" fill="#D6D6D6"/>
<path d="M544.055 836H542.641L1378.63 0H1380.05L544.055 836Z" fill="#D6D6D6"/>
<path d="M555.37 836H553.955L1389.96 0H1391.38L555.37 836Z" fill="#D6D6D6"/>
<path d="M566.69 836H565.275L1401.28 0H1402.7L566.69 836Z" fill="#D6D6D6"/>
<path d="M578.017 836H576.603L1412.6 0H1414.02L578.017 836Z" fill="#D6D6D6"/>
<path d="M589.337 836H587.923L1423.92 0H1425.34L589.337 836Z" fill="#D6D6D6"/>
<path d="M600.657 836H599.243L1435.24 0H1436.66L600.657 836Z" fill="#D6D6D6"/>
<path d="M611.977 836H610.563L1440 6.56312V7.9773L611.977 836Z" fill="#D6D6D6"/>
<path d="M623.305 836H621.891L1440 17.884V19.2982L623.305 836Z" fill="#D6D6D6"/>
<path d="M634.625 836H633.211L1440 29.2042V30.6184L634.625 836Z" fill="#D6D6D6"/>
<path d="M645.947 836H644.533L1440 40.5331V41.9473L645.947 836Z" fill="#D6D6D6"/>
<path d="M657.26 836H655.846L1440 51.8521V53.2662L657.26 836Z" fill="#D6D6D6"/>
<path d="M668.587 836H667.173L1440 63.173V64.5872L668.587 836Z" fill="#D6D6D6"/>
<path d="M679.907 836H678.493L1440 74.4931V75.9073L679.907 836Z" fill="#D6D6D6"/>
<path d="M691.23 836H689.816L1440 85.8219V87.2361L691.23 836Z" fill="#D6D6D6"/>
<path d="M702.55 836H701.136L1440 97.1418V98.5559L702.55 836Z" fill="#D6D6D6"/>
<path d="M713.875 836H712.46L1440 108.454V109.869L713.875 836Z" fill="#D6D6D6"/>
<path d="M725.194 836H723.78L1440 119.775V121.189L725.194 836Z" fill="#D6D6D6"/>
<path d="M736.517 836H735.103L1440 131.103V132.517L736.517 836Z" fill="#D6D6D6"/>
<path d="M747.837 836H746.423L1440 142.423V143.837L747.837 836Z" fill="#D6D6D6"/>
<path d="M759.164 836H757.75L1440 153.745V155.159L759.164 836Z" fill="#D6D6D6"/>
<path d="M770.477 836H769.063L1440 165.063V166.477L770.477 836Z" fill="#D6D6D6"/>
<path d="M781.801 836H780.386L1440 176.392V177.806L781.801 836Z" fill="#D6D6D6"/>
<path d="M793.12 836H791.706L1440 187.711V189.126L793.12 836Z" fill="#D6D6D6"/>
<path d="M804.447 836H803.033L1440 199.033V200.447L804.447 836Z" fill="#D6D6D6"/>
<path d="M815.764 836H814.35L1440 210.345V211.759L815.764 836Z" fill="#D6D6D6"/>
<path d="M827.087 836H825.673L1440 221.673V223.087L827.087 836Z" fill="#D6D6D6"/>
<path d="M838.407 836H836.993L1440 232.993V234.407L838.407 836Z" fill="#D6D6D6"/>
<path d="M849.734 836H848.32L1440 244.315V245.729L849.734 836Z" fill="#D6D6D6"/>
<path d="M861.054 836H859.64L1440 255.635V257.049L861.054 836Z" fill="#D6D6D6"/>
<path d="M872.371 836H870.957L1440 266.961V268.375L872.371 836Z" fill="#D6D6D6"/>
<path d="M883.691 836H882.277L1440 278.281V279.695L883.691 836Z" fill="#D6D6D6"/>
<path d="M895.017 836H893.603L1440 289.603V291.017L895.017 836Z" fill="#D6D6D6"/>
<path d="M906.337 836H904.923L1440 300.923V302.337L906.337 836Z" fill="#D6D6D6"/>
<path d="M917.661 836H916.247L1440 312.251V313.665L917.661 836Z" fill="#D6D6D6"/>
<path d="M928.977 836H927.563L1440 323.563V324.977L928.977 836Z" fill="#D6D6D6"/>
<path d="M940.304 836H938.889L1440 334.885V336.3L940.304 836Z" fill="#D6D6D6"/>
<path d="M951.624 836H950.209L1440 346.205V347.62L951.624 836Z" fill="#D6D6D6"/>
<path d="M962.947 836H961.533L1440 357.533V358.947L962.947 836Z" fill="#D6D6D6"/>
<path d="M974.267 836H972.853L1440 368.853V370.267L974.267 836Z" fill="#D6D6D6"/>
<path d="M985.587 836H984.173L1440 380.173V381.587L985.587 836Z" fill="#D6D6D6"/>
<path d="M996.907 836H995.493L1440 391.493V392.907L996.907 836Z" fill="#D6D6D6"/>
<path d="M1008.23 836H1006.82L1440 402.821V404.235L1008.23 836Z" fill="#D6D6D6"/>
<path d="M1019.55 836H1018.14L1440 414.141V415.555L1019.55 836Z" fill="#D6D6D6"/>
<path d="M1030.88 836H1029.46L1440 425.463V426.877L1030.88 836Z" fill="#D6D6D6"/>
<path d="M1042.19 836H1040.78L1440 436.776V438.19L1042.19 836Z" fill="#D6D6D6"/>
<path d="M1053.52 836H1052.1L1440 448.103V449.517L1053.52 836Z" fill="#D6D6D6"/>
<path d="M1064.84 836H1063.42L1440 459.423V460.837L1064.84 836Z" fill="#D6D6D6"/>
<path d="M1076.16 836H1074.75L1440 470.746V472.16L1076.16 836Z" fill="#D6D6D6"/>
<path d="M1087.48 836H1086.07L1440 482.066V483.48L1087.48 836Z" fill="#D6D6D6"/>
<path d="M1098.8 836H1097.39L1440 493.39V494.805L1098.8 836Z" fill="#D6D6D6"/>
<path d="M1110.12 836H1108.71L1440 504.71V506.124L1110.12 836Z" fill="#D6D6D6"/>
<path d="M1121.45 836H1120.03L1440 516.033V517.447L1121.45 836Z" fill="#D6D6D6"/>
<path d="M1132.77 836H1131.35L1440 527.353V528.767L1132.77 836Z" fill="#D6D6D6"/>
<path d="M1144.09 836H1142.67L1440 538.673V540.087L1144.09 836Z" fill="#D6D6D6"/>
<path d="M1155.41 836H1153.99L1440 549.993V551.407L1155.41 836Z" fill="#D6D6D6"/>
<path d="M1166.73 836H1165.32L1440 561.316V562.73L1166.73 836Z" fill="#D6D6D6"/>
<path d="M1178.05 836H1176.64L1440 572.636V574.05L1178.05 836Z" fill="#D6D6D6"/>
<path d="M1189.38 836H1187.96L1440 583.963V585.377L1189.38 836Z" fill="#D6D6D6"/>
<path d="M1200.69 836H1199.28L1440 595.28V596.694L1200.69 836Z" fill="#D6D6D6"/>
<path d="M1212.02 836H1210.6L1440 606.603V608.017L1212.02 836Z" fill="#D6D6D6"/>
<path d="M1223.34 836H1221.92L1440 617.923V619.337L1223.34 836Z" fill="#D6D6D6"/>
<path d="M1234.66 836H1233.25L1440 629.25V630.664L1234.66 836Z" fill="#D6D6D6"/>
<path d="M1245.98 836H1244.57L1440 640.57V641.984L1245.98 836Z" fill="#D6D6D6"/>
<path d="M1257.3 836H1255.89L1440 651.887V653.301L1257.3 836Z" fill="#D6D6D6"/>
<path d="M1268.62 836H1267.21L1440 663.207V664.621L1268.62 836Z" fill="#D6D6D6"/>
<path d="M1279.95 836H1278.53L1440 674.533V675.947L1279.95 836Z" fill="#D6D6D6"/>
<path d="M1291.27 836H1289.85L1440 685.853V687.267L1291.27 836Z" fill="#D6D6D6"/>
<path d="M1302.59 836H1301.18L1440 697.177V698.591L1302.59 836Z" fill="#D6D6D6"/>
<path d="M1313.91 836H1312.49L1440 708.493V709.907L1313.91 836Z" fill="#D6D6D6"/>
<path d="M1325.23 836H1323.82L1440 719.819V721.234L1325.23 836Z" fill="#D6D6D6"/>
<path d="M1336.55 836H1335.14L1440 731.139V732.553L1336.55 836Z" fill="#D6D6D6"/>
<path d="M1347.88 836H1346.46L1440 742.463V743.877L1347.88 836Z" fill="#D6D6D6"/>
<path d="M1359.2 836H1357.78L1440 753.783V755.197L1359.2 836Z" fill="#D6D6D6"/>
<path d="M1370.52 836H1369.1L1440 765.103V766.517L1370.52 836Z" fill="#D6D6D6"/>
<path d="M1381.84 836H1380.42L1440 776.423V777.837L1381.84 836Z" fill="#D6D6D6"/>
<path d="M1393.16 836H1391.75L1440 787.747V789.161L1393.16 836Z" fill="#D6D6D6"/>
<path d="M1404.48 836H1403.07L1440 799.067V800.481L1404.48 836Z" fill="#D6D6D6"/>
<path d="M1415.8 836H1414.39L1440 810.389V811.803L1415.8 836Z" fill="#D6D6D6"/>
<path d="M1427.12 836H1425.71L1440 821.709V823.123L1427.12 836Z" fill="#D6D6D6"/>
<path d="M1438.45 836H1437.03L1440 833.033V834.447L1438.45 836Z" fill="#D6D6D6"/>
</g>
<ellipse cx="254.5" cy="230" rx="41.5" ry="46" fill="white"/>
<path d="M247.031 217.434L267.656 230.115L247.031 242.797V217.434Z" fill="#C3C2C1"/>
<defs>
<clipPath id="clip0_63_371">
<rect width="509" height="496" fill="white"/>
</clipPath>
</defs>
</svg>
