<svg width="154" height="104" viewBox="0 0 154 104" fill="none" xmlns="http://www.w3.org/2000/svg">
<path fill-rule="evenodd" clip-rule="evenodd" d="M78.001 0.219602C77.5348 -0.0732007 76.7823 -0.0732007 76.3161 0.219602L63.7643 8.10368C63.7474 8.11427 63.7312 8.12511 63.7155 8.13616H2C0.895431 8.13616 0 9.03159 0 10.1362V101.041C0 102.146 0.895431 103.041 2 103.041H152C153.105 103.041 154 102.146 154 101.041V10.1362C154 9.03159 153.105 8.13616 152 8.13616H90.6016C90.5859 8.12511 90.5697 8.11427 90.5528 8.10368L78.001 0.219602Z" fill="#C4C4C4"/>
<path d="M4.44735 27.8594H6.19238L8.85218 32.4879H8.96156L11.6214 27.8594H13.3664L9.6725 34.044V38.0412H8.14125V34.044L4.44735 27.8594ZM16.6563 38.1953C15.9404 38.1953 15.3157 38.0313 14.782 37.7031C14.2484 37.375 13.8341 36.916 13.5392 36.326C13.2442 35.736 13.0967 35.0466 13.0967 34.2578C13.0967 33.4657 13.2442 32.773 13.5392 32.1797C13.8341 31.5864 14.2484 31.1257 14.782 30.7976C15.3157 30.4695 15.9404 30.3054 16.6563 30.3054C17.3722 30.3054 17.997 30.4695 18.5306 30.7976C19.0642 31.1257 19.4785 31.5864 19.7735 32.1797C20.0685 32.773 20.216 33.4657 20.216 34.2578C20.216 35.0466 20.0685 35.736 19.7735 36.326C19.4785 36.916 19.0642 37.375 18.5306 37.7031C17.997 38.0313 17.3722 38.1953 16.6563 38.1953ZM16.6613 36.9474C17.1253 36.9474 17.5098 36.8248 17.8147 36.5796C18.1196 36.3343 18.345 36.0078 18.4909 35.6001C18.64 35.1925 18.7146 34.7434 18.7146 34.2528C18.7146 33.7656 18.64 33.3182 18.4909 32.9105C18.345 32.4995 18.1196 32.1697 17.8147 31.9212C17.5098 31.6726 17.1253 31.5483 16.6613 31.5483C16.194 31.5483 15.8062 31.6726 15.498 31.9212C15.193 32.1697 14.966 32.4995 14.8169 32.9105C14.671 33.3182 14.5981 33.7656 14.5981 34.2528C14.5981 34.7434 14.671 35.1925 14.8169 35.6001C14.966 36.0078 15.193 36.3343 15.498 36.5796C15.8062 36.8248 16.194 36.9474 16.6613 36.9474ZM26.7126 34.8743V30.4048H28.2041V38.0412H26.7425V36.7188H26.6629C26.4872 37.1264 26.2055 37.4662 25.8177 37.7379C25.4333 38.0064 24.9543 38.1406 24.3809 38.1406C23.8904 38.1406 23.4562 38.0329 23.0784 37.8175C22.7039 37.5987 22.4089 37.2756 22.1934 36.848C21.9813 36.4205 21.8753 35.8918 21.8753 35.2621V30.4048H23.3618V35.0831C23.3618 35.6035 23.5059 36.0178 23.7943 36.326C24.0827 36.6342 24.4572 36.7884 24.9179 36.7884C25.1963 36.7884 25.473 36.7188 25.7481 36.5796C26.0265 36.4403 26.2569 36.2299 26.4392 35.9482C26.6248 35.6664 26.7159 35.3085 26.7126 34.8743ZM37.1231 38.1953C36.384 38.1953 35.7477 38.0279 35.214 37.6932C34.6837 37.3551 34.2761 36.8894 33.991 36.2962C33.706 35.7029 33.5635 35.0234 33.5635 34.2578C33.5635 33.4822 33.7093 32.7978 34.001 32.2046C34.2926 31.608 34.7036 31.1423 35.2339 30.8075C35.7642 30.4728 36.389 30.3054 37.1082 30.3054C37.6882 30.3054 38.2053 30.4131 38.6594 30.6286C39.1134 30.8407 39.4797 31.139 39.7581 31.5234C40.0398 31.9079 40.2072 32.357 40.2602 32.8707H38.8135C38.7339 32.5128 38.5516 32.2046 38.2666 31.946C37.9849 31.6875 37.607 31.5582 37.1331 31.5582C36.7188 31.5582 36.3559 31.6676 36.0443 31.8864C35.7361 32.1018 35.4958 32.41 35.3234 32.8111C35.1511 33.2088 35.0649 33.6795 35.0649 34.223C35.0649 34.7798 35.1494 35.2604 35.3184 35.6648C35.4875 36.0691 35.7261 36.3823 36.0344 36.6044C36.3459 36.8265 36.7122 36.9375 37.1331 36.9375C37.4148 36.9375 37.67 36.8861 37.8987 36.7834C38.1307 36.6773 38.3246 36.5265 38.4804 36.331C38.6395 36.1354 38.7505 35.9001 38.8135 35.625H40.2602C40.2072 36.1189 40.0464 36.5597 39.778 36.9474C39.5095 37.3352 39.1499 37.6402 38.6991 37.8622C38.2517 38.0843 37.7264 38.1953 37.1231 38.1953ZM44.0722 38.2102C43.5883 38.2102 43.1508 38.1207 42.7597 37.9418C42.3686 37.7595 42.0587 37.496 41.83 37.1513C41.6046 36.8066 41.4919 36.384 41.4919 35.8835C41.4919 35.4527 41.5748 35.098 41.7405 34.8196C41.9062 34.5412 42.1299 34.3208 42.4117 34.1584C42.6934 33.996 43.0083 33.8733 43.3563 33.7905C43.7043 33.7076 44.0589 33.6447 44.4202 33.6016C44.8776 33.5485 45.2488 33.5055 45.5338 33.4723C45.8189 33.4358 46.026 33.3778 46.1553 33.2983C46.2845 33.2188 46.3492 33.0895 46.3492 32.9105V32.8757C46.3492 32.4415 46.2265 32.1051 45.9813 31.8665C45.7393 31.6278 45.378 31.5085 44.8975 31.5085C44.397 31.5085 44.0026 31.6196 43.7142 31.8416C43.4292 32.0604 43.232 32.304 43.1226 32.5724L41.7256 32.2543C41.8913 31.7903 42.1333 31.4157 42.4514 31.1307C42.7729 30.8423 43.1425 30.6335 43.5601 30.5043C43.9777 30.3717 44.4169 30.3054 44.8776 30.3054C45.1825 30.3054 45.5057 30.3419 45.847 30.4148C46.1917 30.4844 46.5132 30.6136 46.8115 30.8026C47.1131 30.9915 47.3601 31.2616 47.5523 31.6129C47.7445 31.9609 47.8406 32.4134 47.8406 32.9702V38.0412H46.3889V36.9972H46.3293C46.2332 37.1894 46.089 37.3783 45.8968 37.5639C45.7045 37.7495 45.4576 37.9037 45.156 38.0263C44.8544 38.1489 44.4931 38.2102 44.0722 38.2102ZM44.3953 37.0171C44.8063 37.0171 45.1576 36.9358 45.4493 36.7734C45.7443 36.611 45.968 36.3989 46.1205 36.1371C46.2762 35.8719 46.3541 35.5885 46.3541 35.2869V34.3026C46.3011 34.3556 46.1984 34.4053 46.0459 34.4517C45.8968 34.4948 45.7261 34.5329 45.5338 34.5661C45.3416 34.5959 45.1543 34.6241 44.972 34.6506C44.7897 34.6738 44.6373 34.6937 44.5146 34.7102C44.2263 34.7467 43.9628 34.808 43.7242 34.8942C43.4888 34.9804 43.2999 35.1046 43.1574 35.2671C43.0182 35.4261 42.9486 35.6383 42.9486 35.9034C42.9486 36.2713 43.0845 36.5497 43.3563 36.7386C43.628 36.9242 43.9744 37.0171 44.3953 37.0171ZM51.3071 33.5071V38.0412H49.8206V30.4048H51.2474V31.6477H51.3419C51.5175 31.2434 51.7926 30.9186 52.1672 30.6733C52.545 30.428 53.0206 30.3054 53.594 30.3054C54.1144 30.3054 54.5701 30.4148 54.9612 30.6335C55.3523 30.849 55.6556 31.1705 55.871 31.598C56.0864 32.0256 56.1942 32.5542 56.1942 33.184V38.0412H54.7077V33.3629C54.7077 32.8094 54.5635 32.3769 54.2751 32.0653C53.9868 31.7505 53.5907 31.593 53.0869 31.593C52.7422 31.593 52.4356 31.6676 52.1672 31.8168C51.902 31.9659 51.6916 32.1847 51.5358 32.473C51.3833 32.7581 51.3071 33.1028 51.3071 33.5071ZM65.1095 38.1953C64.3704 38.1953 63.734 38.0279 63.2004 37.6932C62.6701 37.3551 62.2624 36.8894 61.9774 36.2962C61.6923 35.7029 61.5498 35.0234 61.5498 34.2578C61.5498 33.4822 61.6956 32.7978 61.9873 32.2046C62.279 31.608 62.69 31.1423 63.2203 30.8075C63.7506 30.4728 64.3753 30.3054 65.0945 30.3054C65.6746 30.3054 66.1916 30.4131 66.6457 30.6286C67.0998 30.8407 67.466 31.139 67.7444 31.5234C68.0261 31.9079 68.1935 32.357 68.2465 32.8707H66.7998C66.7203 32.5128 66.538 32.2046 66.2529 31.946C65.9712 31.6875 65.5934 31.5582 65.1194 31.5582C64.7051 31.5582 64.3422 31.6676 64.0306 31.8864C63.7224 32.1018 63.4821 32.41 63.3097 32.8111C63.1374 33.2088 63.0512 33.6795 63.0512 34.223C63.0512 34.7798 63.1357 35.2604 63.3048 35.6648C63.4738 36.0691 63.7124 36.3823 64.0207 36.6044C64.3322 36.8265 64.6985 36.9375 65.1194 36.9375C65.4011 36.9375 65.6563 36.8861 65.885 36.7834C66.117 36.6773 66.3109 36.5265 66.4667 36.331C66.6258 36.1354 66.7368 35.9001 66.7998 35.625H68.2465C68.1935 36.1189 68.0328 36.5597 67.7643 36.9474C67.4958 37.3352 67.1362 37.6402 66.6855 37.8622C66.238 38.0843 65.7127 38.1953 65.1095 38.1953ZM73.0528 38.1953C72.3369 38.1953 71.7122 38.0313 71.1785 37.7031C70.6449 37.375 70.2306 36.916 69.9356 36.326C69.6407 35.736 69.4932 35.0466 69.4932 34.2578C69.4932 33.4657 69.6407 32.773 69.9356 32.1797C70.2306 31.5864 70.6449 31.1257 71.1785 30.7976C71.7122 30.4695 72.3369 30.3054 73.0528 30.3054C73.7687 30.3054 74.3935 30.4695 74.9271 30.7976C75.4607 31.1257 75.875 31.5864 76.17 32.1797C76.465 32.773 76.6125 33.4657 76.6125 34.2578C76.6125 35.0466 76.465 35.736 76.17 36.326C75.875 36.916 75.4607 37.375 74.9271 37.7031C74.3935 38.0313 73.7687 38.1953 73.0528 38.1953ZM73.0578 36.9474C73.5218 36.9474 73.9063 36.8248 74.2112 36.5796C74.5161 36.3343 74.7415 36.0078 74.8873 35.6001C75.0365 35.1925 75.1111 34.7434 75.1111 34.2528C75.1111 33.7656 75.0365 33.3182 74.8873 32.9105C74.7415 32.4995 74.5161 32.1697 74.2112 31.9212C73.9063 31.6726 73.5218 31.5483 73.0578 31.5483C72.5905 31.5483 72.2027 31.6726 71.8944 31.9212C71.5895 32.1697 71.3625 32.4995 71.2133 32.9105C71.0675 33.3182 70.9946 33.7656 70.9946 34.2528C70.9946 34.7434 71.0675 35.1925 71.2133 35.6001C71.3625 36.0078 71.5895 36.3343 71.8944 36.5796C72.2027 36.8248 72.5905 36.9474 73.0578 36.9474ZM79.7583 33.5071V38.0412H78.2718V30.4048H79.6986V31.6477H79.7931C79.9687 31.2434 80.2438 30.9186 80.6183 30.6733C80.9962 30.428 81.4718 30.3054 82.0452 30.3054C82.5655 30.3054 83.0213 30.4148 83.4124 30.6335C83.8035 30.849 84.1067 31.1705 84.3222 31.598C84.5376 32.0256 84.6453 32.5542 84.6453 33.184V38.0412H83.1588V33.3629C83.1588 32.8094 83.0146 32.3769 82.7263 32.0653C82.4379 31.7505 82.0419 31.593 81.5381 31.593C81.1934 31.593 80.8868 31.6676 80.6183 31.8168C80.3532 31.9659 80.1427 32.1847 79.9869 32.473C79.8345 32.7581 79.7583 33.1028 79.7583 33.5071ZM88.1254 33.5071V38.0412H86.6389V30.4048H88.0658V31.6477H88.1602C88.3359 31.2434 88.611 30.9186 88.9855 30.6733C89.3634 30.428 89.839 30.3054 90.4124 30.3054C90.9327 30.3054 91.3885 30.4148 91.7796 30.6335C92.1707 30.849 92.4739 31.1705 92.6894 31.598C92.9048 32.0256 93.0125 32.5542 93.0125 33.184V38.0412H91.526V33.3629C91.526 32.8094 91.3818 32.3769 91.0935 32.0653C90.8051 31.7505 90.4091 31.593 89.9053 31.593C89.5606 31.593 89.254 31.6676 88.9855 31.8168C88.7204 31.9659 88.5099 32.1847 88.3541 32.473C88.2017 32.7581 88.1254 33.1028 88.1254 33.5071ZM98.2973 38.1953C97.545 38.1953 96.897 38.0346 96.3534 37.7131C95.8132 37.3883 95.3956 36.9325 95.1006 36.3459C94.8089 35.7559 94.6631 35.0649 94.6631 34.2727C94.6631 33.4905 94.8089 32.8011 95.1006 32.2046C95.3956 31.608 95.8066 31.1423 96.3335 30.8075C96.8638 30.4728 97.4836 30.3054 98.1929 30.3054C98.6238 30.3054 99.0414 30.3767 99.4458 30.5192C99.8501 30.6617 100.213 30.8854 100.535 31.1903C100.856 31.4953 101.11 31.8913 101.295 32.3786C101.481 32.8625 101.574 33.4508 101.574 34.1435V34.6705H95.5033V33.5568H100.117C100.117 33.1657 100.037 32.8194 99.8783 32.5178C99.7192 32.2128 99.4955 31.9725 99.2071 31.7969C98.9221 31.6212 98.5873 31.5334 98.2029 31.5334C97.7852 31.5334 97.4207 31.6361 97.1091 31.8416C96.8009 32.0438 96.5622 32.309 96.3932 32.6371C96.2275 32.9619 96.1446 33.3149 96.1446 33.696V34.5661C96.1446 35.0765 96.2341 35.5107 96.4131 35.8686C96.5954 36.2266 96.8489 36.5 97.1737 36.6889C97.4986 36.8745 97.878 36.9673 98.3122 36.9673C98.594 36.9673 98.8508 36.9276 99.0828 36.848C99.3148 36.7652 99.5154 36.6425 99.6844 36.4801C99.8534 36.3177 99.9827 36.1172 100.072 35.8786L101.479 36.1321C101.366 36.5464 101.164 36.9093 100.873 37.2209C100.584 37.5291 100.221 37.7694 99.7838 37.9418C99.3496 38.1108 98.8541 38.1953 98.2973 38.1953ZM106.44 38.1953C105.7 38.1953 105.064 38.0279 104.53 37.6932C104 37.3551 103.592 36.8894 103.307 36.2962C103.022 35.7029 102.88 35.0234 102.88 34.2578C102.88 33.4822 103.026 32.7978 103.317 32.2046C103.609 31.608 104.02 31.1423 104.55 30.8075C105.081 30.4728 105.705 30.3054 106.425 30.3054C107.005 30.3054 107.522 30.4131 107.976 30.6286C108.43 30.8407 108.796 31.139 109.074 31.5234C109.356 31.9079 109.524 32.357 109.577 32.8707H108.13C108.05 32.5128 107.868 32.2046 107.583 31.946C107.301 31.6875 106.923 31.5582 106.449 31.5582C106.035 31.5582 105.672 31.6676 105.361 31.8864C105.052 32.1018 104.812 32.41 104.64 32.8111C104.467 33.2088 104.381 33.6795 104.381 34.223C104.381 34.7798 104.466 35.2604 104.635 35.6648C104.804 36.0691 105.043 36.3823 105.351 36.6044C105.662 36.8265 106.029 36.9375 106.449 36.9375C106.731 36.9375 106.986 36.8861 107.215 36.7834C107.447 36.6773 107.641 36.5265 107.797 36.331C107.956 36.1354 108.067 35.9001 108.13 35.625H109.577C109.524 36.1189 109.363 36.5597 109.094 36.9474C108.826 37.3352 108.466 37.6402 108.016 37.8622C107.568 38.0843 107.043 38.1953 106.44 38.1953ZM114.731 30.4048V31.598H110.56V30.4048H114.731ZM111.678 28.5753H113.165V35.799C113.165 36.0874 113.208 36.3045 113.294 36.4503C113.38 36.5928 113.491 36.6906 113.627 36.7436C113.766 36.7933 113.917 36.8182 114.08 36.8182C114.199 36.8182 114.303 36.8099 114.393 36.7933C114.482 36.7768 114.552 36.7635 114.602 36.7536L114.87 37.9815C114.784 38.0147 114.661 38.0478 114.502 38.081C114.343 38.1174 114.144 38.1373 113.906 38.1406C113.515 38.1473 113.15 38.0777 112.812 37.9318C112.474 37.786 112.2 37.5606 111.992 37.2557C111.783 36.9508 111.678 36.568 111.678 36.1072V28.5753ZM121.02 40.9048C120.798 40.9048 120.596 40.8866 120.413 40.8501C120.231 40.817 120.095 40.7805 120.006 40.7408L120.364 39.5227C120.636 39.5956 120.877 39.6271 121.09 39.6172C121.302 39.6072 121.489 39.5277 121.651 39.3786C121.817 39.2294 121.963 38.9858 122.089 38.6477L122.273 38.1406L119.479 30.4048H121.07L123.004 36.331H123.083L125.017 30.4048H126.613L123.466 39.0604C123.32 39.4581 123.135 39.7945 122.909 40.0696C122.684 40.348 122.415 40.5568 122.104 40.696C121.792 40.8352 121.431 40.9048 121.02 40.9048ZM130.967 38.1953C130.251 38.1953 129.626 38.0313 129.093 37.7031C128.559 37.375 128.145 36.916 127.85 36.326C127.555 35.736 127.407 35.0466 127.407 34.2578C127.407 33.4657 127.555 32.773 127.85 32.1797C128.145 31.5864 128.559 31.1257 129.093 30.7976C129.626 30.4695 130.251 30.3054 130.967 30.3054C131.683 30.3054 132.308 30.4695 132.841 30.7976C133.375 31.1257 133.789 31.5864 134.084 32.1797C134.379 32.773 134.527 33.4657 134.527 34.2578C134.527 35.0466 134.379 35.736 134.084 36.326C133.789 36.916 133.375 37.375 132.841 37.7031C132.308 38.0313 131.683 38.1953 130.967 38.1953ZM130.972 36.9474C131.436 36.9474 131.82 36.8248 132.125 36.5796C132.43 36.3343 132.656 36.0078 132.801 35.6001C132.951 35.1925 133.025 34.7434 133.025 34.2528C133.025 33.7656 132.951 33.3182 132.801 32.9105C132.656 32.4995 132.43 32.1697 132.125 31.9212C131.82 31.6726 131.436 31.5483 130.972 31.5483C130.505 31.5483 130.117 31.6726 129.809 31.9212C129.504 32.1697 129.277 32.4995 129.127 32.9105C128.982 33.3182 128.909 33.7656 128.909 34.2528C128.909 34.7434 128.982 35.1925 129.127 35.6001C129.277 36.0078 129.504 36.3343 129.809 36.5796C130.117 36.8248 130.505 36.9474 130.972 36.9474ZM141.023 34.8743V30.4048H142.515V38.0412H141.053V36.7188H140.973C140.798 37.1264 140.516 37.4662 140.128 37.7379C139.744 38.0064 139.265 38.1406 138.691 38.1406C138.201 38.1406 137.767 38.0329 137.389 37.8175C137.014 37.5987 136.719 37.2756 136.504 36.848C136.292 36.4205 136.186 35.8918 136.186 35.2621V30.4048H137.672V35.0831C137.672 35.6035 137.816 36.0178 138.105 36.326C138.393 36.6342 138.768 36.7884 139.228 36.7884C139.507 36.7884 139.784 36.7188 140.059 36.5796C140.337 36.4403 140.567 36.2299 140.75 35.9482C140.935 35.6664 141.026 35.3085 141.023 34.8743ZM144.512 38.0412V30.4048H145.949V31.6179H146.028C146.168 31.2069 146.413 30.8838 146.764 30.6484C147.119 30.4098 147.52 30.2905 147.967 30.2905C148.06 30.2905 148.169 30.2938 148.295 30.3004C148.425 30.3071 148.526 30.3153 148.599 30.3253V31.7472C148.539 31.7306 148.433 31.7124 148.28 31.6925C148.128 31.6693 147.976 31.6577 147.823 31.6577C147.472 31.6577 147.159 31.7322 146.883 31.8814C146.612 32.0272 146.396 32.2311 146.237 32.4929C146.078 32.7514 145.998 33.0464 145.998 33.3778V38.0412H144.512ZM14.0425 62.0412L11.7954 54.4048H13.3316L14.828 60.0128H14.9026L16.404 54.4048H17.9403L19.4317 59.9879H19.5063L20.9928 54.4048H22.529L20.2868 62.0412H18.7705L17.2194 56.5277H17.105L15.5539 62.0412H14.0425ZM26.162 62.2102C25.6781 62.2102 25.2406 62.1207 24.8495 61.9418C24.4584 61.7595 24.1485 61.496 23.9198 61.1513C23.6945 60.8066 23.5818 60.384 23.5818 59.8835C23.5818 59.4527 23.6646 59.098 23.8303 58.8196C23.9961 58.5412 24.2198 58.3208 24.5015 58.1584C24.7832 57.996 25.0981 57.8733 25.4461 57.7905C25.7941 57.7076 26.1488 57.6447 26.51 57.6016C26.9674 57.5485 27.3386 57.5055 27.6237 57.4723C27.9087 57.4358 28.1159 57.3778 28.2451 57.2983C28.3744 57.2188 28.439 57.0895 28.439 56.9105V56.8757C28.439 56.4415 28.3164 56.1051 28.0711 55.8665C27.8292 55.6278 27.4679 55.5085 26.9873 55.5085C26.4868 55.5085 26.0924 55.6196 25.8041 55.8416C25.519 56.0604 25.3218 56.304 25.2124 56.5724L23.8154 56.2543C23.9811 55.7903 24.2231 55.4157 24.5413 55.1307C24.8628 54.8423 25.2323 54.6335 25.6499 54.5043C26.0676 54.3717 26.5067 54.3054 26.9674 54.3054C27.2723 54.3054 27.5955 54.3419 27.9369 54.4148C28.2816 54.4844 28.6031 54.6136 28.9014 54.8026C29.203 54.9915 29.4499 55.2616 29.6421 55.6129C29.8344 55.9609 29.9305 56.4134 29.9305 56.9702V62.0412H28.4788V60.9972H28.4191C28.323 61.1894 28.1788 61.3783 27.9866 61.5639C27.7944 61.7495 27.5474 61.9037 27.2458 62.0263C26.9442 62.1489 26.5829 62.2102 26.162 62.2102ZM26.4852 61.0171C26.8962 61.0171 27.2475 60.9358 27.5392 60.7734C27.8341 60.611 28.0579 60.3989 28.2103 60.1371C28.3661 59.8719 28.444 59.5885 28.444 59.2869V58.3026C28.391 58.3556 28.2882 58.4053 28.1357 58.4517C27.9866 58.4948 27.8159 58.5329 27.6237 58.5661C27.4314 58.5959 27.2442 58.6241 27.0619 58.6506C26.8796 58.6738 26.7271 58.6937 26.6045 58.7102C26.3161 58.7467 26.0526 58.808 25.814 58.8942C25.5787 58.9804 25.3898 59.1046 25.2472 59.2671C25.108 59.4261 25.0384 59.6383 25.0384 59.9034C25.0384 60.2713 25.1743 60.5497 25.4461 60.7386C25.7179 60.9242 26.0642 61.0171 26.4852 61.0171ZM33.3969 51.8594V62.0412H31.9104V51.8594H33.3969ZM36.8833 51.8594V62.0412H35.3968V51.8594H36.8833ZM42.1743 62.1953C41.4219 62.1953 40.7739 62.0346 40.2304 61.7131C39.6901 61.3883 39.2725 60.9325 38.9775 60.3459C38.6859 59.7559 38.54 59.0649 38.54 58.2727C38.54 57.4905 38.6859 56.8011 38.9775 56.2046C39.2725 55.608 39.6835 55.1423 40.2105 54.8075C40.7408 54.4728 41.3606 54.3054 42.0699 54.3054C42.5007 54.3054 42.9184 54.3767 43.3227 54.5192C43.7271 54.6617 44.09 54.8854 44.4115 55.1903C44.733 55.4953 44.9865 55.8913 45.1721 56.3786C45.3577 56.8625 45.4506 57.4508 45.4506 58.1435V58.6705H39.3802V57.5568H43.9939C43.9939 57.1657 43.9143 56.8194 43.7552 56.5178C43.5961 56.2128 43.3724 55.9725 43.0841 55.7969C42.799 55.6212 42.4643 55.5334 42.0798 55.5334C41.6622 55.5334 41.2976 55.6361 40.9861 55.8416C40.6778 56.0438 40.4392 56.309 40.2702 56.6371C40.1044 56.9619 40.0216 57.3149 40.0216 57.696V58.5661C40.0216 59.0765 40.1111 59.5107 40.29 59.8686C40.4723 60.2266 40.7259 60.5 41.0507 60.6889C41.3755 60.8745 41.755 60.9673 42.1892 60.9673C42.4709 60.9673 42.7278 60.9276 42.9598 60.848C43.1918 60.7652 43.3923 60.6425 43.5613 60.4801C43.7304 60.3177 43.8596 60.1172 43.9491 59.8786L45.3561 60.1321C45.2434 60.5464 45.0412 60.9093 44.7496 61.2209C44.4612 61.5291 44.0983 61.7694 43.6608 61.9418C43.2266 62.1108 42.7311 62.1953 42.1743 62.1953ZM50.6645 54.4048V55.598H46.4933V54.4048H50.6645ZM47.6119 52.5753H49.0985V59.799C49.0985 60.0874 49.1415 60.3045 49.2277 60.4503C49.3139 60.5928 49.4249 60.6906 49.5608 60.7436C49.7 60.7933 49.8508 60.8182 50.0132 60.8182C50.1325 60.8182 50.2369 60.8099 50.3264 60.7933C50.4159 60.7768 50.4855 60.7635 50.5352 60.7536L50.8037 61.9815C50.7175 62.0147 50.5949 62.0478 50.4358 62.081C50.2767 62.1174 50.0779 62.1373 49.8392 62.1406C49.4481 62.1473 49.0835 62.0777 48.7455 61.9318C48.4074 61.786 48.134 61.5606 47.9252 61.2557C47.7164 60.9508 47.6119 60.568 47.6119 60.1072V52.5753ZM59.2306 62.1953C58.5146 62.1953 57.8899 62.0313 57.3563 61.7031C56.8227 61.375 56.4084 60.916 56.1134 60.326C55.8184 59.736 55.6709 59.0466 55.6709 58.2578C55.6709 57.4657 55.8184 56.773 56.1134 56.1797C56.4084 55.5864 56.8227 55.1257 57.3563 54.7976C57.8899 54.4695 58.5146 54.3054 59.2306 54.3054C59.9465 54.3054 60.5712 54.4695 61.1048 54.7976C61.6385 55.1257 62.0528 55.5864 62.3477 56.1797C62.6427 56.773 62.7902 57.4657 62.7902 58.2578C62.7902 59.0466 62.6427 59.736 62.3477 60.326C62.0528 60.916 61.6385 61.375 61.1048 61.7031C60.5712 62.0313 59.9465 62.1953 59.2306 62.1953ZM59.2355 60.9474C59.6995 60.9474 60.084 60.8248 60.3889 60.5796C60.6939 60.3343 60.9192 60.0078 61.0651 59.6001C61.2142 59.1925 61.2888 58.7434 61.2888 58.2528C61.2888 57.7656 61.2142 57.3182 61.0651 56.9105C60.9192 56.4995 60.6939 56.1697 60.3889 55.9212C60.084 55.6726 59.6995 55.5483 59.2355 55.5483C58.7682 55.5483 58.3804 55.6726 58.0722 55.9212C57.7673 56.1697 57.5402 56.4995 57.3911 56.9105C57.2452 57.3182 57.1723 57.7656 57.1723 58.2528C57.1723 58.7434 57.2452 59.1925 57.3911 59.6001C57.5402 60.0078 57.7673 60.3343 58.0722 60.5796C58.3804 60.8248 58.7682 60.9474 59.2355 60.9474ZM65.936 57.5071V62.0412H64.4495V54.4048H65.8763V55.6477H65.9708C66.1465 55.2434 66.4215 54.9186 66.7961 54.6733C67.1739 54.428 67.6495 54.3054 68.2229 54.3054C68.7433 54.3054 69.199 54.4148 69.5901 54.6335C69.9812 54.849 70.2845 55.1705 70.4999 55.598C70.7153 56.0256 70.8231 56.5542 70.8231 57.184V62.0412H69.3366V57.3629C69.3366 56.8094 69.1924 56.3769 68.904 56.0653C68.6157 55.7505 68.2196 55.593 67.7158 55.593C67.3711 55.593 67.0645 55.6676 66.7961 55.8168C66.5309 55.9659 66.3205 56.1847 66.1647 56.473C66.0122 56.7581 65.936 57.1028 65.936 57.5071ZM76.0333 62.1953C75.2942 62.1953 74.6578 62.0279 74.1242 61.6932C73.5939 61.3551 73.1862 60.8894 72.9012 60.2962C72.6162 59.7029 72.4736 59.0234 72.4736 58.2578C72.4736 57.4822 72.6195 56.7978 72.9111 56.2046C73.2028 55.608 73.6138 55.1423 74.1441 54.8075C74.6744 54.4728 75.2992 54.3054 76.0184 54.3054C76.5984 54.3054 77.1154 54.4131 77.5695 54.6286C78.0236 54.8407 78.3898 55.139 78.6682 55.5234C78.95 55.9079 79.1173 56.357 79.1704 56.8707H77.7236C77.6441 56.5128 77.4618 56.2046 77.1768 55.946C76.895 55.6875 76.5172 55.5582 76.0432 55.5582C75.6289 55.5582 75.266 55.6676 74.9545 55.8864C74.6462 56.1018 74.4059 56.41 74.2336 56.8111C74.0612 57.2088 73.9751 57.6795 73.9751 58.223C73.9751 58.7798 74.0596 59.2604 74.2286 59.6648C74.3976 60.0691 74.6363 60.3823 74.9445 60.6044C75.2561 60.8265 75.6223 60.9375 76.0432 60.9375C76.325 60.9375 76.5802 60.8861 76.8089 60.7834C77.0409 60.6773 77.2348 60.5265 77.3905 60.331C77.5496 60.1354 77.6607 59.9001 77.7236 59.625H79.1704C79.1173 60.1189 78.9566 60.5597 78.6881 60.9474C78.4197 61.3352 78.06 61.6402 77.6093 61.8622C77.1618 62.0843 76.6365 62.1953 76.0333 62.1953ZM84.0512 62.1953C83.2989 62.1953 82.6509 62.0346 82.1073 61.7131C81.5671 61.3883 81.1495 60.9325 80.8545 60.3459C80.5628 59.7559 80.417 59.0649 80.417 58.2727C80.417 57.4905 80.5628 56.8011 80.8545 56.2046C81.1495 55.608 81.5605 55.1423 82.0874 54.8075C82.6177 54.4728 83.2375 54.3054 83.9468 54.3054C84.3777 54.3054 84.7953 54.3767 85.1997 54.5192C85.604 54.6617 85.9669 54.8854 86.2884 55.1903C86.6099 55.4953 86.8635 55.8913 87.0491 56.3786C87.2347 56.8625 87.3275 57.4508 87.3275 58.1435V58.6705H81.2572V57.5568H85.8708C85.8708 57.1657 85.7913 56.8194 85.6322 56.5178C85.4731 56.2128 85.2494 55.9725 84.961 55.7969C84.676 55.6212 84.3412 55.5334 83.9568 55.5334C83.5392 55.5334 83.1746 55.6361 82.863 55.8416C82.5548 56.0438 82.3161 56.309 82.1471 56.6371C81.9814 56.9619 81.8985 57.3149 81.8985 57.696V58.5661C81.8985 59.0765 81.988 59.5107 82.167 59.8686C82.3493 60.2266 82.6028 60.5 82.9276 60.6889C83.2525 60.8745 83.632 60.9673 84.0661 60.9673C84.3479 60.9673 84.6047 60.9276 84.8367 60.848C85.0687 60.7652 85.2693 60.6425 85.4383 60.4801C85.6073 60.3177 85.7366 60.1172 85.8261 59.8786L87.233 60.1321C87.1204 60.5464 86.9182 60.9093 86.6265 61.2209C86.3382 61.5291 85.9752 61.7694 85.5377 61.9418C85.1035 62.1108 84.608 62.1953 84.0512 62.1953ZM92.6819 62.0412V54.4048H94.1088V55.6477H94.2032C94.3623 55.2268 94.6225 54.8987 94.9838 54.6634C95.345 54.4247 95.7776 54.3054 96.2813 54.3054C96.7918 54.3054 97.2193 54.4247 97.564 54.6634C97.912 54.902 98.1689 55.2301 98.3346 55.6477H98.4142C98.5964 55.2401 98.8865 54.9153 99.2842 54.6733C99.6819 54.428 100.156 54.3054 100.706 54.3054C101.399 54.3054 101.964 54.5225 102.401 54.9567C102.842 55.3909 103.063 56.0455 103.063 56.9205V62.0412H101.576V57.0597C101.576 56.5426 101.435 56.1681 101.153 55.9361C100.872 55.7041 100.535 55.5881 100.144 55.5881C99.6604 55.5881 99.2842 55.7372 99.0157 56.0355C98.7472 56.3305 98.613 56.71 98.613 57.174V62.0412H97.1315V56.9652C97.1315 56.5509 97.0022 56.2178 96.7437 55.9659C96.4852 55.714 96.1488 55.5881 95.7345 55.5881C95.4527 55.5881 95.1926 55.6626 94.9539 55.8118C94.7186 55.9576 94.528 56.1615 94.3822 56.4233C94.2397 56.6851 94.1684 56.9884 94.1684 57.3331V62.0412H92.6819ZM105.055 62.0412V54.4048H106.541V62.0412H105.055ZM105.806 53.2266C105.547 53.2266 105.325 53.1404 105.139 52.968C104.957 52.7924 104.866 52.5836 104.866 52.3416C104.866 52.0964 104.957 51.8876 105.139 51.7152C105.325 51.5395 105.547 51.4517 105.806 51.4517C106.064 51.4517 106.285 51.5395 106.467 51.7152C106.652 51.8876 106.745 52.0964 106.745 52.3416C106.745 52.5836 106.652 52.7924 106.467 52.968C106.285 53.1404 106.064 53.2266 105.806 53.2266ZM110.028 57.5071V62.0412H108.541V54.4048H109.968V55.6477H110.063C110.238 55.2434 110.513 54.9186 110.888 54.6733C111.266 54.428 111.741 54.3054 112.315 54.3054C112.835 54.3054 113.291 54.4148 113.682 54.6335C114.073 54.849 114.376 55.1705 114.592 55.598C114.807 56.0256 114.915 56.5542 114.915 57.184V62.0412H113.428V57.3629C113.428 56.8094 113.284 56.3769 112.996 56.0653C112.707 55.7505 112.311 55.593 111.808 55.593C111.463 55.593 111.156 55.6676 110.888 55.8168C110.623 55.9659 110.412 56.1847 110.256 56.473C110.104 56.7581 110.028 57.1028 110.028 57.5071ZM120.473 54.4048V55.598H116.302V54.4048H120.473ZM117.421 52.5753H118.907V59.799C118.907 60.0874 118.95 60.3045 119.036 60.4503C119.122 60.5928 119.234 60.6906 119.369 60.7436C119.509 60.7933 119.659 60.8182 119.822 60.8182C119.941 60.8182 120.046 60.8099 120.135 60.7933C120.225 60.7768 120.294 60.7635 120.344 60.7536L120.612 61.9815C120.526 62.0147 120.403 62.0478 120.244 62.081C120.085 62.1174 119.886 62.1373 119.648 62.1406C119.257 62.1473 118.892 62.0777 118.554 61.9318C118.216 61.786 117.943 61.5606 117.734 61.2557C117.525 60.9508 117.421 60.568 117.421 60.1072V52.5753ZM122.117 62.0412V54.4048H123.604V62.0412H122.117ZM122.868 53.2266C122.61 53.2266 122.388 53.1404 122.202 52.968C122.02 52.7924 121.929 52.5836 121.929 52.3416C121.929 52.0964 122.02 51.8876 122.202 51.7152C122.388 51.5395 122.61 51.4517 122.868 51.4517C123.127 51.4517 123.347 51.5395 123.529 51.7152C123.715 51.8876 123.808 52.0964 123.808 52.3416C123.808 52.5836 123.715 52.7924 123.529 52.968C123.347 53.1404 123.127 53.2266 122.868 53.2266ZM127.09 57.5071V62.0412H125.604V54.4048H127.031V55.6477H127.125C127.301 55.2434 127.576 54.9186 127.95 54.6733C128.328 54.428 128.804 54.3054 129.377 54.3054C129.898 54.3054 130.353 54.4148 130.744 54.6335C131.136 54.849 131.439 55.1705 131.654 55.598C131.87 56.0256 131.977 56.5542 131.977 57.184V62.0412H130.491V57.3629C130.491 56.8094 130.347 56.3769 130.058 56.0653C129.77 55.7505 129.374 55.593 128.87 55.593C128.525 55.593 128.219 55.6676 127.95 55.8168C127.685 55.9659 127.475 56.1847 127.319 56.473C127.167 56.7581 127.09 57.1028 127.09 57.5071ZM137.173 65.0639C136.566 65.0639 136.044 64.9844 135.607 64.8253C135.172 64.6662 134.818 64.4557 134.543 64.1939C134.268 63.9321 134.062 63.6454 133.926 63.3338L135.204 62.8068C135.293 62.9527 135.413 63.1068 135.562 63.2692C135.714 63.4349 135.92 63.5758 136.178 63.6918C136.44 63.8078 136.777 63.8658 137.188 63.8658C137.751 63.8658 138.217 63.7282 138.585 63.4531C138.953 63.1814 139.136 62.7472 139.136 62.1506V60.6492H139.042C138.953 60.8116 138.823 60.9922 138.654 61.1911C138.488 61.3899 138.26 61.5623 137.968 61.7081C137.676 61.8539 137.297 61.9269 136.83 61.9269C136.226 61.9269 135.683 61.786 135.199 61.5043C134.718 61.2192 134.337 60.8 134.055 60.2465C133.777 59.6896 133.638 59.0052 133.638 58.1932C133.638 57.3812 133.775 56.6851 134.051 56.1051C134.329 55.5251 134.71 55.081 135.194 54.7727C135.678 54.4612 136.226 54.3054 136.84 54.3054C137.314 54.3054 137.696 54.3849 137.988 54.544C138.28 54.6998 138.507 54.8821 138.669 55.0909C138.835 55.2997 138.962 55.4837 139.052 55.6428H139.161V54.4048H140.618V62.2102C140.618 62.8665 140.466 63.4051 140.161 63.826C139.856 64.2469 139.443 64.5585 138.923 64.7607C138.406 64.9628 137.822 65.0639 137.173 65.0639ZM137.158 60.6939C137.585 60.6939 137.947 60.5945 138.242 60.3956C138.54 60.1934 138.765 59.9051 138.918 59.5305C139.073 59.1527 139.151 58.7003 139.151 58.1733C139.151 57.6596 139.075 57.2072 138.923 56.8161C138.77 56.425 138.546 56.12 138.252 55.9013C137.957 55.6792 137.592 55.5682 137.158 55.5682C136.71 55.5682 136.337 55.6842 136.039 55.9162C135.741 56.1449 135.515 56.4564 135.363 56.8509C135.214 57.2453 135.139 57.6861 135.139 58.1733C135.139 58.6738 135.216 59.1129 135.368 59.4908C135.52 59.8686 135.746 60.1636 136.044 60.3757C136.346 60.5878 136.717 60.6939 137.158 60.6939ZM61.6884 80.2692L60.3411 80.5078C60.2847 80.3355 60.1953 80.1714 60.0726 80.0156C59.9533 79.8599 59.7909 79.7322 59.5854 79.6328C59.3799 79.5334 59.123 79.4837 58.8148 79.4837C58.3939 79.4837 58.0426 79.5781 57.7608 79.7671C57.4791 79.9527 57.3382 80.193 57.3382 80.4879C57.3382 80.7431 57.4327 80.9486 57.6216 81.1044C57.8105 81.2602 58.1155 81.3878 58.5364 81.4872L59.7495 81.7656C60.4521 81.928 60.9758 82.1783 61.3205 82.5163C61.6652 82.8544 61.8375 83.2936 61.8375 83.8338C61.8375 84.2912 61.705 84.6989 61.4398 85.0568C61.178 85.4115 60.8117 85.6899 60.3411 85.8921C59.8738 86.0942 59.3319 86.1953 58.7154 86.1953C57.8603 86.1953 57.1626 86.013 56.6223 85.6484C56.0821 85.2805 55.7507 84.7585 55.628 84.0824L57.0648 83.8636C57.1543 84.2382 57.3382 84.5215 57.6167 84.7138C57.8951 84.9027 58.258 84.9972 58.7054 84.9972C59.1926 84.9972 59.5821 84.8961 59.8738 84.6939C60.1654 84.4884 60.3113 84.2382 60.3113 83.9432C60.3113 83.7046 60.2218 83.504 60.0428 83.3416C59.8671 83.1792 59.597 83.0566 59.2324 82.9737L57.9398 82.6903C57.2272 82.5279 56.7002 82.2694 56.3588 81.9148C56.0208 81.5601 55.8517 81.111 55.8517 80.5675C55.8517 80.1167 55.9777 79.7223 56.2296 79.3842C56.4815 79.0462 56.8295 78.7827 57.2736 78.5938C57.7177 78.4015 58.2265 78.3054 58.7999 78.3054C59.6252 78.3054 60.2748 78.4844 60.7488 78.8423C61.2227 79.197 61.5359 79.6726 61.6884 80.2692ZM67.0366 78.4048V79.598H62.8654V78.4048H67.0366ZM63.984 76.5753H65.4705V83.799C65.4705 84.0874 65.5136 84.3045 65.5998 84.4503C65.686 84.5928 65.797 84.6906 65.9329 84.7436C66.0721 84.7933 66.2229 84.8182 66.3853 84.8182C66.5046 84.8182 66.609 84.8099 66.6985 84.7933C66.788 84.7768 66.8576 84.7635 66.9073 84.7536L67.1758 85.9815C67.0896 86.0147 66.967 86.0478 66.8079 86.081C66.6488 86.1174 66.4499 86.1373 66.2113 86.1406C65.8202 86.1473 65.4556 86.0777 65.1175 85.9318C64.7795 85.786 64.506 85.5606 64.2972 85.2557C64.0884 84.9508 63.984 84.568 63.984 84.1072V76.5753ZM70.9032 86.2102C70.4193 86.2102 69.9818 86.1207 69.5907 85.9418C69.1996 85.7595 68.8897 85.496 68.661 85.1513C68.4357 84.8066 68.323 84.384 68.323 83.8835C68.323 83.4527 68.4058 83.098 68.5716 82.8196C68.7373 82.5412 68.961 82.3208 69.2427 82.1584C69.5244 81.996 69.8393 81.8733 70.1873 81.7905C70.5353 81.7076 70.89 81.6447 71.2512 81.6016C71.7086 81.5485 72.0798 81.5055 72.3649 81.4723C72.6499 81.4358 72.8571 81.3778 72.9863 81.2983C73.1156 81.2188 73.1802 81.0895 73.1802 80.9105V80.8757C73.1802 80.4415 73.0576 80.1051 72.8123 79.8665C72.5704 79.6278 72.2091 79.5085 71.7285 79.5085C71.228 79.5085 70.8336 79.6196 70.5453 79.8416C70.2602 80.0604 70.063 80.304 69.9537 80.5724L68.5566 80.2543C68.7224 79.7903 68.9643 79.4157 69.2825 79.1307C69.604 78.8423 69.9735 78.6335 70.3912 78.5043C70.8088 78.3717 71.2479 78.3054 71.7086 78.3054C72.0136 78.3054 72.3367 78.3419 72.6781 78.4148C73.0228 78.4844 73.3443 78.6136 73.6426 78.8026C73.9442 78.9915 74.1911 79.2616 74.3833 79.6129C74.5756 79.9609 74.6717 80.4134 74.6717 80.9702V86.0412H73.22V84.9972H73.1603C73.0642 85.1894 72.92 85.3783 72.7278 85.5639C72.5356 85.7495 72.2886 85.9037 71.987 86.0263C71.6854 86.1489 71.3242 86.2102 70.9032 86.2102ZM71.2264 85.0171C71.6374 85.0171 71.9887 84.9358 72.2804 84.7734C72.5753 84.611 72.7991 84.3989 72.9515 84.1371C73.1073 83.8719 73.1852 83.5885 73.1852 83.2869V82.3026C73.1322 82.3556 73.0294 82.4053 72.877 82.4517C72.7278 82.4948 72.5571 82.5329 72.3649 82.5661C72.1726 82.5959 71.9854 82.6241 71.8031 82.6506C71.6208 82.6738 71.4683 82.6937 71.3457 82.7102C71.0574 82.7467 70.7939 82.808 70.5552 82.8942C70.3199 82.9804 70.131 83.1046 69.9885 83.2671C69.8493 83.4261 69.7797 83.6383 69.7797 83.9034C69.7797 84.2713 69.9155 84.5497 70.1873 84.7386C70.4591 84.9242 70.8055 85.0171 71.2264 85.0171ZM76.6516 86.0412V78.4048H78.0884V79.6179H78.168C78.3072 79.2069 78.5524 78.8838 78.9038 78.6484C79.2584 78.4098 79.6594 78.2905 80.1069 78.2905C80.1997 78.2905 80.3091 78.2938 80.435 78.3004C80.5643 78.3071 80.6654 78.3153 80.7383 78.3253V79.7472C80.6786 79.7306 80.5726 79.7124 80.4201 79.6925C80.2676 79.6693 80.1152 79.6577 79.9627 79.6577C79.6114 79.6577 79.2982 79.7322 79.0231 79.8814C78.7513 80.0272 78.5359 80.2311 78.3768 80.4929C78.2177 80.7514 78.1381 81.0464 78.1381 81.3778V86.0412H76.6516ZM86.0405 78.4048V79.598H81.8693V78.4048H86.0405ZM82.9879 76.5753H84.4744V83.799C84.4744 84.0874 84.5175 84.3045 84.6037 84.4503C84.6899 84.5928 84.8009 84.6906 84.9368 84.7436C85.076 84.7933 85.2268 84.8182 85.3892 84.8182C85.5085 84.8182 85.6129 84.8099 85.7024 84.7933C85.7919 84.7768 85.8615 84.7635 85.9112 84.7536L86.1797 85.9815C86.0935 86.0147 85.9709 86.0478 85.8118 86.081C85.6527 86.1174 85.4538 86.1373 85.2152 86.1406C84.8241 86.1473 84.4595 86.0777 84.1214 85.9318C83.7834 85.786 83.5099 85.5606 83.3011 85.2557C83.0923 84.9508 82.9879 84.568 82.9879 84.1072V76.5753ZM93.2841 80.2692L91.9368 80.5078C91.8804 80.3355 91.791 80.1714 91.6683 80.0156C91.549 79.8599 91.3866 79.7322 91.1811 79.6328C90.9756 79.5334 90.7188 79.4837 90.4105 79.4837C89.9896 79.4837 89.6383 79.5781 89.3565 79.7671C89.0748 79.9527 88.9339 80.193 88.9339 80.4879C88.9339 80.7431 89.0284 80.9486 89.2173 81.1044C89.4063 81.2602 89.7112 81.3878 90.1321 81.4872L91.3452 81.7656C92.0478 81.928 92.5715 82.1783 92.9162 82.5163C93.2609 82.8544 93.4332 83.2936 93.4332 83.8338C93.4332 84.2912 93.3007 84.6989 93.0355 85.0568C92.7737 85.4115 92.4074 85.6899 91.9368 85.8921C91.4695 86.0942 90.9276 86.1953 90.3111 86.1953C89.456 86.1953 88.7583 86.013 88.218 85.6484C87.6778 85.2805 87.3464 84.7585 87.2237 84.0824L88.6605 83.8636C88.75 84.2382 88.9339 84.5215 89.2124 84.7138C89.4908 84.9027 89.8537 84.9972 90.3011 84.9972C90.7884 84.9972 91.1778 84.8961 91.4695 84.6939C91.7611 84.4884 91.907 84.2382 91.907 83.9432C91.907 83.7046 91.8175 83.504 91.6385 83.3416C91.4628 83.1792 91.1927 83.0566 90.8281 82.9737L89.5355 82.6903C88.8229 82.5279 88.2959 82.2694 87.9545 81.9148C87.6165 81.5601 87.4474 81.111 87.4474 80.5675C87.4474 80.1167 87.5734 79.7223 87.8253 79.3842C88.0772 79.0462 88.4252 78.7827 88.8693 78.5938C89.3134 78.4015 89.8222 78.3054 90.3956 78.3054C91.2209 78.3054 91.8705 78.4844 92.3445 78.8423C92.8184 79.197 93.1316 79.6726 93.2841 80.2692ZM96.0471 86.1357C95.7753 86.1357 95.5416 86.0395 95.3461 85.8473C95.1505 85.6518 95.0527 85.4164 95.0527 85.1413C95.0527 84.8696 95.1505 84.6376 95.3461 84.4453C95.5416 84.2498 95.7753 84.152 96.0471 84.152C96.3188 84.152 96.5525 84.2498 96.748 84.4453C96.9436 84.6376 97.0414 84.8696 97.0414 85.1413C97.0414 85.3236 96.995 85.491 96.9022 85.6435C96.8127 85.7926 96.6934 85.9119 96.5442 86.0014C96.3951 86.0909 96.2293 86.1357 96.0471 86.1357Z" fill="white"/>
</svg>
